# xmcd
#
# Track frame offsets:
#	150
#	10049
#	25317
#	38189
#	51743
#	61470
#	73746
#	88467
#	106467
#	120599
#	135878
#	157740
#
# Disc length: 4617 seconds
#
# Revision: 1
# Processed by: cddbd v1.5.2PL0 Copyright (c) Steve Scherf et al.
# Submitted via: audiograbber 1.83.01
#
DISCID=a112070c
DTITLE=Kevin McKrell - Sara Milonovich - Kate McKrell - Brian Melick - Snowday
DYEAR=1900
DGENRE=
TTITLE0=Christmas Train
TTITLE1=2000 Miles
TTITLE2=Christmas for Cowboys
TTITLE3=I Want a Hippopotamus for Christmas
TTITLE4=Snow
TTITLE5=If We Make It Through December
TTITLE6=Silent Night All Day Long
TTITLE7=Light the Trees
TTITLE8=River
TTITLE9=Pretty Paper
TTITLE10=Must Be Santa
TTITLE11=Data Track
EXTD=
EXTT0=
EXTT1=
EXTT2=
EXTT3=
EXTT4=
EXTT5=
EXTT6=
EXTT7=
EXTT8=
EXTT9=
EXTT10=
EXTT11=
PLAYORDER=
